<?xml version="1.0" encoding="utf-8"?>
<!-- Generator: Adobe Illustrator 21.0.2, SVG Export Plug-In . SVG Version: 6.00 Build 0)  -->
<svg version="1.1" id="Capa_1" xmlns="http://www.w3.org/2000/svg" x="0px" y="0px" viewBox="0 0 642.5 395" xml:space="preserve">
	<style type="text/css"> .st0{fill:#FFFFFF;} .st1{fill:#F20014;} .st2{fill-rule:evenodd;clip-rule:evenodd;fill:#FFFFFF;} </style>
	<g>
		<rect x="18.8" y="214.5" class="st1" width="601.2" height="159"/>
		<path class="st0" d="M152.3,238.6l5.3,24.7c0.2,1-1.6,1.3-1.9,0.3c-3.7-10.7-15.1-17.7-29.2-17.7h-12.4v43.7h24.8
			c5.6,0,8.8-5.6,8.4-10.2c-0.1-1.4,2-2.4,2.4-0.5l8.2,36.1c0.3,1.2-1.9,1.2-2.2,0.2c-3.9-14.3-22.6-18.2-30.9-18.2h-10.7v39.8
			c0,5.9,3.9,9.4,8.6,11c1.6,0.5,1.2,2.5-0.8,2.5H73.3v-99.5c0-5.5-4.6-9.8-8.4-9.8c-1.3,0-1.2-2.1-0.1-2.1H152.3z M467.8,269.7
			c0.1,1.2-1.1,2-2.2,0.4c-3.7-5.3-14.9-17.5-27.2-17.8c-5.9-0.2-11.6,1.8-11.8,7.7c-0.5,16.6,49.2,11.9,47.2,58.1
			c-1,23.5-22.6,35.1-41.2,35.1c-22.5-0.1-36.2-12.8-36.2-12.8v-28.3c0-1.5,1.4-1.4,1.9-0.6c6.4,10.4,16.6,19.5,26.1,20.9
			c4.5,0.7,11.3,0,13.5-6.5c6.2-18.8-44.9-16.6-45.2-56.7c-0.2-25,21.3-33.5,37.2-34.3c17.8-0.9,36.2,7.6,36.2,7.6L467.8,269.7z
			 M244.2,238.6l5.3,24.7c0.2,1-1.6,1.3-1.9,0.3c-3.7-10.7-15.1-17.7-29.2-17.7h-12.4v43.7h24.8c5.6,0,8.8-5.6,8.4-10.2
			c-0.1-1.4,2-2.4,2.4-0.5l8.2,36.1c0.3,1.2-1.9,1.2-2.2,0.2c-3.9-14.3-22.6-18.2-30.9-18.2h-10.7v45.7h9.3
			c16.1,0,28.7-7.3,32.2-17.6c0.5-1.5,2.5-1.2,2.2,0.1l-5.9,25h-78.5v-99.5c0-5.5-4.6-9.8-8.4-9.8c-1.3,0-1.2-2.1-0.1-2.1H244.2z
			 M505.9,235.6l57.2,104.4c2.8,5.2,6.1,6.1,10.8,7.6c1.6,0.5,1.3,2.5-0.8,2.5h-43.7c-6.3,0-11.5-3.4-14.9-9.7L497,307.2
			c-3.8-7.2-16-5.8-19.3,4.4c-0.6,1.7-3,1-2.3-0.6l29.6-75.3H505.9z M389.1,238.6v98.1c0,5.9,3.9,9.4,8.6,11c1.6,0.5,1.2,2.5-0.8,2.5
			h-48.6v-75.6l-31,78.2h-0.7l-44-79.8v63.7c0,5.9,3.9,9.4,8.6,11c1.6,0.5,1.3,2.5-0.8,2.5h-23.1v-99.5c0-5.5-4.6-9.8-8.4-9.8
			c-1.3,0-1.2-2.1-0.1-2.1h45.8c4.7,0,9,2.6,11,6.3l19.4,34.7c3.1,5.5,11.3,4.8,12.4-1.9l6.2-37.6c0.1-0.9,0.9-1.5,1.9-1.5H389.1z"/>
		<rect x="18.8" y="19.5" class="st1" width="601.2" height="159"/>
		<path class="st2" d="M198.3,46.7v0.1h-0.1c-2.6,0-5.6,1-9,2.9c-3.3,1.8-6.7,4.2-10.2,7.1c-2.3,1.9-4.5,4-6.8,6.2
			c-2.2,2.2-4.2,4.4-6.2,6.5c-1.5,1.6-2.8,3.2-4.1,4.7c-1.3,1.4-2.4,2.9-3.5,4.3c-1.6,2.1-3.2,4.2-4.6,6.4c-1.4,2.1-2.8,4.2-4.2,6.2
			c-3.3,5.5-5.9,11-8,16.3c-2.1,5.2-3.3,10.2-3.5,14.8c-0.1,0.6-0.1,1.2-0.1,1.8v1.6c0,6.6,1.5,11.7,4.6,15.3c3.2,3.6,8,6.1,14.5,7.5
			c1.5,0.4,3,0.6,4.5,0.7c1.4,0.2,2.9,0.3,4.2,0.3c1.7,0,3.4-0.1,5-0.4c1.7-0.2,3.3-0.4,4.9-0.7c1.8-0.4,3.6-0.8,5.3-1.4
			c1.8-0.5,3.7-1.1,5.6-1.6c1.1-0.3,2.2-0.6,3.3-0.8c1.1-0.3,2.2-0.5,3.4-0.8c3-0.7,5.7-1.4,8.1-1.9c2.4-0.6,4.8-1.2,7.2-1.8
			c2.4-0.5,4.7-1.1,7.2-1.6c2.4-0.5,5.2-1,8.1-1.5c0.4-0.1,0.7-0.1,0.9-0.1c0.4-0.1,0.7-0.2,1.1-0.3c2-0.4,3.8-0.7,5.6-1
			c1.7-0.4,3.4-0.7,5.2-0.9c1.5-0.3,3.1-0.5,4.6-0.6c1.6-0.2,3.3-0.3,5.2-0.3h0.8h0.9c0.3,0.1,0.5,0.1,0.8,0.1h1
			c8.8,0.4,16.4,1.9,22.9,4.2c6.5,2.3,12.8,5.9,19,10.7c1.3,1,2.5,2.1,3.8,3.3c1.4,1.2,2.7,2.4,3.9,3.7c-2.2-1.7-4.7-3.1-7.7-4.2
			c-2.9-1.1-5.9-1.9-9-2.5c-1.6-0.3-3.3-0.4-5-0.5c-1.6-0.1-3.2-0.1-4.7-0.1h-3.4c-1,0.1-2,0.2-3,0.3c-1.7,0.3-3.4,0.7-5,1.4
			c-1.5,0.7-2.9,1.5-4.2,2.3c-1.3,0.8-2.3,1.5-3.1,2.2c-0.8,0.7-1.4,1.2-1.8,1.5c-0.7-0.6-1.6-1.5-2.7-2.6c-1-1-2.3-2-3.8-3.1
			c-2-1.3-4.6-2.5-7.7-3.8c-3.1-1.3-7-2.1-11.8-2.6c-0.5-0.1-1.1-0.1-1.6-0.1h-1.6c-4.4,0-9,0.5-13.8,1.6c-4.8,1.1-10,2.3-15.5,3.7
			c-1,0.3-2,0.5-3,0.8c-1,0.3-2,0.6-3,0.9c-5.1,1.5-10.2,3-15.1,4.2c-4.9,1.3-9.7,1.9-14.4,1.9H157c-0.5,0-0.9,0-1.4-0.1
			c-0.5,0-1.1,0-1.6-0.1c-0.4,0-0.9-0.1-1.4-0.1c-1.9-0.3-4.1-0.6-6.6-1.1c-2.4-0.4-4.9-1-7.5-2c-4.9-1.8-9.4-5-13.6-9.6
			c-4.2-4.7-6.3-12-6.5-21.8c-0.1-8.3,2.2-16.5,6.9-24.4c4.8-8,10.6-16,17.5-23.9c4.4-5.1,9.1-9.7,14.1-13.8
			c5.1-4.2,10.1-7.9,15.2-10.9c4.2-2.4,8.4-4.3,12.5-5.7c4.2-1.5,8.1-2.3,11.9-2.5h0.1h0.1c2.6,0,5,0.9,7.1,2.6
			c2.1,1.6,3.3,3.8,3.5,6.4v0.3v0.3v0.3v0.3V52c0,0.4-0.1,0.7-0.1,1.1c-0.4,2.9-1.6,5.6-3.5,8c-1.9,2.4-4.1,3.5-6.5,3.5h-0.7
			c-0.2,0-0.4,0-0.5-0.1c-1.3-0.3-2.2-0.7-2.9-1.4c-0.5-0.7-0.8-1.5-0.8-2.4c0-0.7,0.1-1.4,0.4-2.2c0.4-0.7,0.8-1.5,1.2-2.2
			c0.4-0.7,1-1.4,1.6-1.9c0.7-0.6,1.4-1.1,2.2-1.5c0.8-0.5,1.6-0.9,2.4-1.2c0.8-0.3,1.4-0.4,1.9-0.4h0.1h0.1v-0.3v-0.4v-0.3v-0.3
			v-0.4c0-0.2,0-0.3-0.1-0.4c-0.1-0.6-0.4-1.2-0.9-1.6c-0.6-0.4-1.6-0.7-3.1-0.8V46.7z M420.8,41c2.8,0.1,5.2,0.3,7.1,0.7
			c1.9,0.4,3.8,0.9,5.6,1.5c1.1,0.5,2.2,0.9,3.3,1.5c1.1,0.5,2.3,1.2,3.7,1.9c0.8,0.5,1.6,0.9,2.4,1.4c0.9,0.5,1.8,1,2.7,1.5
			c0.3,0.2,0.5,0.4,0.8,0.5c0.3,0.1,0.5,0.2,0.8,0.4c2.5,1.4,4.8,2.8,6.9,4.2c2.2,1.3,3.5,2.1,4.1,2.4l-9.9,10.5
			c-1.2-0.6-2.3-1.3-3.4-1.9c-1.1-0.6-2.2-1.3-3.3-1.9c-0.4-0.2-0.8-0.4-1.2-0.5c-0.5-0.3-0.9-0.5-1.2-0.8c-0.8-0.5-1.7-0.9-2.6-1.4
			c-0.9-0.5-1.9-0.9-2.8-1.4c-1.9-1-3.6-1.9-5.2-2.7c-1.5-0.9-3.1-1.8-4.6-2.6c-1.9-1-3.9-1.9-6-2.7c-2-0.8-4.3-1.4-7.1-1.9
			c-0.4-0.1-0.8-0.1-1.2-0.1c-0.4-0.1-0.7-0.1-0.9-0.1c-0.6,0-1.2,0-1.8,0.1c-0.4,0.1-0.9,0.2-1.4,0.4c-0.1,0-0.2,0-0.3,0.1h-0.1
			c-0.3,0-0.5,0.1-0.7,0.1c-0.2,0.1-0.4,0.1-0.5,0.1c0.1,0.2,0.2,0.4,0.3,0.8c0.1,0.4,0.2,0.7,0.3,1.1c0.1,0.6,0.2,1.4,0.3,2.3
			c0.2,0.8,0.3,1.7,0.3,2.6c0,1.4-0.1,2.6-0.3,3.8c-0.2,1.1-0.4,2.2-0.8,3.3c-0.3,0.9-0.6,1.8-0.9,2.7c-0.3,0.9-0.6,1.9-1.1,2.8
			c-1.7,4-4,7.5-6.8,10.4c-2.7,2.9-5.6,5.1-8.5,6.6c-1.5,0.8-3.1,1.5-4.6,1.9c-1.5,0.5-3,0.7-4.3,0.7c-1,0.1-2,0-3-0.3
			c-0.9-0.3-1.7-0.6-2.4-1.1c-0.9-0.6-1.6-1.4-2-2.4c-0.4-1-0.7-2.1-0.7-3.3c0-1.3,0.2-2.6,0.5-3.9c0.4-1.4,0.8-2.8,1.4-4.2
			c0.5-1.5,1.2-2.8,1.9-4.2c0.7-1.4,1.4-2.8,2.2-3.9c1.2-1.9,2.6-3.7,4.2-5.4c1.6-1.8,3.2-3.4,4.9-4.9c2.3-2,4.4-3.7,6.5-5
			c2.1-1.4,3.7-2.2,4.7-2.6c-0.2-0.1-0.4-0.2-0.5-0.3c-0.1-0.1-0.2-0.2-0.4-0.3c-0.3-0.2-0.6-0.3-0.9-0.4c-0.4-0.2-0.9-0.3-1.5-0.3
			h-0.7c-0.3,0-0.5,0-0.8,0.1c-1.8,0.4-3.9,1-6.2,2c-2.3,0.9-4.7,2.1-7.2,3.7c-1.1,0.7-2.2,1.5-3.4,2.3c-1.2,0.8-2.3,1.7-3.4,2.6
			c-2.5,2.2-4.9,4.3-7.1,6.4c-2.2,2-4.2,4-6,6c-2.2,2.4-4.2,4.7-6.1,7.2c-1.9,2.4-3.8,5-5.6,7.6c-1.4,1.9-2.8,3.9-4.2,6.1
			c-1.4,2.2-2.8,4.4-4.2,6.8c-1.5,2.4-2.9,4.8-4.1,7.1c-1.2,2.2-2.2,4.3-3,6.5c-1.2,3.2-2.1,6.4-2.7,9.6c-0.6,3.3-0.9,6.8-0.9,10.6
			c0,4.2,0.6,7.6,1.9,10.5c1.4,2.7,3.7,4.3,7.1,4.9c0.5,0.1,0.9,0.2,1.4,0.3h1.5c4.3,0,8.3-1.3,12.2-3.9c3.9-2.7,7.3-6.1,10.3-10
			c0.1-0.2,0.2-0.4,0.3-0.5c0.2-0.2,0.3-0.4,0.4-0.5c1.1-1.5,2.1-3.1,3-4.9c1-1.8,1.9-3.7,2.7-5.6c0.8-2,1.5-3.9,2-5.8
			c0.5-2,0.8-3.8,0.8-5.3c0-1.4-0.3-2.6-0.8-3.5c-0.4-1-1.3-1.6-2.6-1.8h-0.3c-0.1,0-0.1-0.1-0.1-0.1h-0.3h-0.3
			c-1.7,0-3.2,0.6-4.3,1.8c-1.2,1.1-2.3,2.3-3.4,3.7c-0.1,0-0.1,0.1-0.1,0.1h-0.1c-0.1,0.2-0.2,0.4-0.3,0.5c-0.1,0.1-0.2,0.2-0.3,0.3
			c-0.6,0.6-1,1.4-1.5,2.3c-0.4,0.9-0.7,1.9-1,2.8c-0.5,1.7-0.9,3.3-1.2,4.7c-0.3,1.4-0.5,2.2-0.7,2.3c-0.7,0.3-1.4,0.5-2,0.8
			c-0.5,0.3-1,0.5-1.5,0.7c-0.3,0.1-0.5,0.2-0.7,0.3c-0.2,0.1-0.3,0.2-0.4,0.3c-0.5,0.2-0.9,0.4-1.2,0.7c-0.4,0.2-0.8,0.4-1.2,0.7
			c-0.3,0.2-0.6,0.4-1,0.7c-0.3,0.2-0.6,0.4-0.9,0.7c-0.3,0.2-0.5,0.4-0.8,0.7c-0.3,0.3-0.5,0.5-0.8,0.7c-1.1,1-2.1,1.9-3,2.7
			c-0.8,0.7-1.4,1-1.6,0.8c-0.1-0.1-0.2-0.3-0.3-0.7V131c0-1.5,0.1-3.4,0.4-5.8c0.4-2.4,1-5,1.9-7.6c0.5-1.7,1.2-3.4,2-5
			c0.8-1.7,1.8-3.3,3-4.6c2.4-3,5.2-5.3,8.4-7.1c3.2-1.7,6.4-2.6,9.8-2.6c0.7,0,1.4,0,1.9,0.1c0.6,0,1.3,0.1,1.9,0.3
			c2.9,0.6,4.9,1.9,6.1,3.8c1.3,1.9,1.9,4.2,1.9,6.8c0,2-0.3,4.1-0.8,6.4c-0.5,2.3-1.3,4.5-2.3,6.8c-0.9,2.3-1.9,4.5-3.1,6.6
			c-1.1,2.1-2.2,4.1-3.4,6c-4.2,6.4-9.1,11.6-14.8,15.6c-5.6,4.1-11.6,6.1-18,6.1h-1.5c-0.5,0-1-0.1-1.5-0.1
			c-6.2-0.6-11.5-2.3-15.9-5.2c-4.2-2.7-6.4-8-6.4-15.9c0-1.5,0.1-3.1,0.3-4.7c0.2-1.7,0.4-3.6,0.8-5.6c1.4-7.2,3.7-14,6.8-20.3
			c3.2-6.3,6.5-12,9.9-17.1c1.8-2.7,3.6-5.2,5.4-7.5c1.8-2.3,3.5-4.3,5-6.1c1.1-1.3,2.2-2.5,3.4-3.8c1.3-1.3,2.5-2.5,3.8-3.8
			c6.2-6.1,13.5-11.7,21.8-16.8c8.3-5.2,17.1-8.1,26.3-8.7h0.1h0.3h0.3c1.2,0,2.2,0.1,3.1,0.4c0.9,0.3,1.8,0.6,2.7,1.1
			c0.5,0.3,1.1,0.6,1.6,1c0.6,0.4,1.3,0.7,1.9,0.9c0.3,0.1,0.5,0.2,0.7,0.4c0.3,0.1,0.5,0.2,0.7,0.3c1.4-0.6,2.6-1.2,3.8-1.6
			c1.3-0.5,2.5-0.9,3.7-1.2c1.6-0.4,3.3-0.8,5-0.9c1.8-0.2,3.8-0.3,6-0.3V41z M398.9,51.9c-1.1,0.5-2.4,1.1-3.9,2
			c-1.5,0.8-3.1,1.9-4.7,3.1c-1.5,1.1-2.9,2.4-4.3,3.8c-1.4,1.4-2.6,2.8-3.7,4.5c-0.3,0.4-0.5,0.8-0.8,1.2c-0.2,0.4-0.4,0.7-0.7,1.1
			c-0.4,0.7-0.9,1.5-1.4,2.2c-0.4,0.7-0.8,1.5-1.2,2.3c-0.8,1.5-1.5,3.1-2.2,4.6c-0.5,1.5-0.8,2.9-0.8,4.1c0,0.5,0.1,1,0.3,1.5
			c0.2,0.4,0.5,0.9,0.8,1.2c0.4,0.4,0.9,0.6,1.2,0.8c0.5,0.1,1,0.1,1.5,0.1c0.9,0,1.9-0.2,3-0.5c1.1-0.5,2.2-1,3.3-1.8
			c1.4-1,2.9-2.2,4.4-3.5c1.4-1.4,2.7-2.9,3.8-4.3c0.2-0.3,0.4-0.5,0.5-0.8c0.2-0.3,0.4-0.5,0.5-0.8c2.1-3.4,3.4-6.4,4.1-8.8
			c0.6-2.5,1-4.7,1-6.5c0-1,0-2-0.1-2.9c-0.1-0.9-0.2-1.7-0.4-2.4V51.9z M450.6,86.6c-1.4,2.4-2.8,4.5-3.9,6.5
			c-1.2,1.9-2.3,3.8-3.3,5.7c-0.7,1.4-1.4,2.8-2.2,4.2c-0.7,1.4-1.4,2.8-2,4.3c-0.4,1.1-0.9,2.2-1.5,3.3c-0.5,1.1-0.9,2.3-1.4,3.5
			c2.4-1.6,5.3-3.7,8.5-6.1c3.3-2.5,6.6-5.5,10-8.8c0.5-0.5,1-1.1,1.5-1.6c0.6-0.5,1.1-1.1,1.6-1.6c1.6-1.7,3.1-3.3,4.3-4.6
			c1.3-1.4,2.4-2.8,3.5-4.1c0.5-0.5,0.9-1,1.2-1.5c0.5-0.5,0.9-1.1,1.4-1.6c0.9-1.1,1.8-2.3,2.7-3.5c1-1.4,2-2.9,3.1-4.5l5.2-1
			c-1.1,1.8-2.1,3.4-3.1,4.9c-1,1.4-2,2.8-3,4.2c-0.6,0.8-1.3,1.6-1.9,2.5c-0.6,0.8-1.3,1.6-2,2.3c-1.2,1.4-2.4,2.9-3.8,4.3
			c-1.4,1.4-2.8,3-4.5,4.7c-1.7,1.8-3.4,3.5-5,5c-1.5,1.5-3,2.9-4.5,4.2c-1.3,1.1-2.5,2.2-3.8,3.3c-1.2,1-2.4,1.9-3.8,2.8
			c-1.4,1.1-2.9,2.2-4.5,3.3c-1.5,1-3.2,2.1-5,3.3c-0.1,0-0.5,0.7-1.2,2.2c-0.7,1.4-1.5,3.2-2.3,5.3c-0.3,0.8-0.6,1.6-0.9,2.5
			c-0.3,0.8-0.5,1.6-0.8,2.4c-0.5,1.6-1,3.2-1.4,4.7c-0.3,1.5-0.4,2.8-0.4,3.9c-0.1,0.9,0,1.7,0.3,2.3c0.3,0.6,0.7,1,1.4,1.2
			c0.2,0.1,0.3,0.1,0.4,0.1h0.4c0.8,0,1.7-0.3,2.6-0.8c0.9-0.5,1.8-1.2,2.7-2c0.7-0.6,1.4-1.3,2-2c0.7-0.7,1.4-1.5,2-2.3
			c0.4-0.4,0.7-0.9,1.1-1.2c0.4-0.4,0.7-0.9,1.1-1.4c4.7-5.7,8.8-10.9,12.2-15.7c3.5-4.8,6.9-8.8,10-12.1c0.8-0.7,1.6-1.4,2.3-2
			c0.7-0.7,1.5-1.4,2.3-1.9c0.7-0.5,1.4-1,2-1.4c0.6-0.4,1.3-0.8,1.9-1.1c1.4-0.7,2.7-1.2,4.1-1.5c1.4-0.4,2.9-0.5,4.6-0.5
			c2,0,3.5,0.2,4.5,0.5c1.1,0.4,1.9,0.8,2.4,1.2c0.4,0.3,0.6,0.5,0.8,0.8c0.3,0.3,0.5,0.5,0.7,0.7v0.1h0.1c0-0.2,0-0.4,0.1-0.7
			c0.2-0.3,0.4-0.5,0.5-0.8c0.1-0.1,0.1-0.2,0.1-0.3c0.1-0.2,0.2-0.3,0.3-0.4c0.1-0.2,0.2-0.4,0.3-0.6c0.2-0.2,0.3-0.3,0.4-0.4
			c0.2-0.2,0.8-0.3,1.8-0.3c1.1-0.1,2.3-0.1,3.5-0.1h0.3h0.6c1.5,0,3,0.1,4.3,0.1c1.4,0.1,2.1,0.2,2.2,0.4c0.2,0.2-1,2.3-3.5,6.5
			c-2.4,4.1-5.1,8.6-8,13.7c-0.3,0.4-0.5,0.7-0.7,1.1c-0.2,0.3-0.4,0.6-0.6,1c-2.7,4.7-5.1,9.1-7.3,13.3c-2.1,4.1-3.1,6.8-3.1,8.1
			v0.4c0.1,0.1,0.2,0.2,0.3,0.3c0.2,0.1,0.4,0.2,0.5,0.3h0.7c0.9,0.1,1.9-0.3,3.1-1.1c1.2-0.8,2.4-1.9,3.7-3.1c0.5-0.5,0.9-1,1.4-1.5
			c0.4-0.5,0.9-1.1,1.4-1.6c0.4-0.6,0.7-1.1,1.1-1.8c0.5-0.6,0.9-1.3,1.2-1.9c0.1-0.2,0.2-0.4,0.3-0.5c0.2-0.2,0.3-0.4,0.4-0.7
			c0.7-1.3,1.5-2.3,2.2-3.1c0.8-0.9,1.6-1.2,2.4-1c0.9,0.4,0.6,2-0.9,5c-1.5,2.9-3.6,6.1-6.4,9.6c-1.5,2-3.3,3.9-5.1,5.8
			c-1.8,1.8-3.7,3.4-5.6,4.9c-1.5,1.1-3.1,2-4.6,2.7c-1.4,0.7-2.8,1.1-4.2,1.1c-2.4,0-4.3-0.5-5.4-1.5c-1.2-0.9-2-2-2.6-3.3
			c-0.3-0.8-0.5-1.6-0.7-2.3c-0.1-0.7-0.2-1.3-0.3-1.6c0-0.1-0.1-0.1-0.1-0.1v-0.3c0,0.3-0.3,0.8-0.9,1.6c-0.6,0.8-1.5,1.7-2.6,2.7
			c-1.3,1.2-2.8,2.3-4.7,3.3c-1.8,1-3.8,1.5-5.8,1.5c-3.3,0-5.6-0.8-6.9-2.4c-1.3-1.5-2-3.3-2.2-5.2c-0.1-0.2-0.1-0.4-0.1-0.5v-0.8
			c0-0.9,0.1-1.8,0.1-2.6c0.2-0.9,0.3-1.7,0.4-2.3c0.1-0.5,0.2-0.8,0.3-1.1c0.1-0.4,0.2-0.6,0.3-0.7c0,0.4-0.7,1.3-2,2.8
			c-1.3,1.5-2.8,3.2-4.7,4.9c-0.6,0.5-1.3,1.1-2,1.8c-0.7,0.6-1.4,1.2-2.2,1.8c-1.5,1.3-3,2.3-4.5,3.1c-1.4,0.8-2.7,1.2-3.8,1.2
			c-2.5,0-4.6-0.9-6.2-2.8c-1.6-1.9-2.4-4.1-2.4-6.5c0-1.2,0.1-2.7,0.4-4.6c0.4-2,0.8-4,1.2-6.1c0.2-1,0.4-2,0.5-2.9
			c0.2-0.9,0.4-1.8,0.7-2.6c0.5-1.9,0.9-3.5,1.4-4.9c0.4-1.5,0.8-2.3,1.1-2.5l-5.3,0.8c-0.3,0.7-1,2.1-2.2,4.1
			c-1.2,2-2.5,4.1-4.1,6.4c-0.4,0.7-0.9,1.4-1.5,2.2c-0.4,0.6-1,1.3-1.5,1.9c-0.1,0.2-0.2,0.4-0.4,0.5c-0.1,0.2-0.2,0.4-0.4,0.5
			c-3.4,4.2-7.1,8-10.8,11.1c-3.8,3.3-7.9,5-12.2,5.3h-0.3h-0.3h-0.1c-0.5,0-1.1,0-1.6-0.1c-0.5-0.1-1.1-0.2-1.6-0.3
			c-1.8-0.5-3.5-1.5-5-3c-1.5-1.4-2.4-3.3-2.7-6v-0.4v-0.5c-0.1-0.2-0.1-0.3-0.1-0.4v-0.5c0-3.4,0.7-6.8,2-10.5
			c1.4-3.6,3.8-7.9,7.1-12.9c1.5-2.4,3.1-4.5,4.7-6.4c1.6-2,3.3-3.8,4.9-5.4c4.2-4,8.2-6.9,12.1-8.8c3.9-1.9,7.1-2.8,9.5-2.7
			c2.6,0.1,4.8,0.9,6.6,2.3c1.9,1.4,2.9,3.8,3.1,7.2v0.1v0.1v0.3c0,0.5-0.1,1.1-0.1,1.8c-0.1,0.6-0.2,1.3-0.3,1.9
			c-0.2,0.8-0.4,1.6-0.7,2.4c-0.2,0.8-0.4,1.5-0.7,2.2c-0.4,0.9-0.7,1.7-1,2.3c-0.3,0.6-0.5,1-0.7,1.2l4.6-1.1
			c0.9-2.4,1.7-4.4,2.4-6.2c0.7-1.9,1.4-3.6,2.2-5.2c0.4-0.9,0.7-1.7,1.1-2.4c0.4-0.8,0.9-1.6,1.2-2.5c0.9-1.6,1.9-3.3,2.9-5.2
			c1.1-1.8,2.3-3.8,3.7-6.1c1.4-2.4,3.1-4.8,4.9-7.3c1.8-2.6,3.8-5.2,5.8-7.9c1.6-2,3.3-4,4.9-6c1.7-2.1,3.5-4.1,5.3-6
			c3.3-3.7,6.6-7.1,9.9-10.2c3.3-3.1,6.2-5.4,8.7-7.1c3.6-2.4,6.5-3.9,8.7-4.7c2.3-0.8,4.3-1.2,6-1.2c0.7,0,1.4,0,2,0.1
			c0.6,0,1.3,0.1,1.9,0.3c1.3,0.2,2.2,0.7,2.9,1.6c0.7,0.9,1.1,2,1.2,3.2v0.4v0.4c0,0.5,0,1.1-0.1,1.6c-0.1,0.5-0.2,1.1-0.3,1.8
			c-0.2,0.7-0.4,1.5-0.7,2.3c-0.3,0.7-0.5,1.4-0.8,2c-0.4,0.7-0.7,1.3-0.9,1.8c-0.3,0.5-0.5,0.7-0.7,0.8l-4.9,1.2
			c0.2-0.2,0.4-0.5,0.7-0.9c0.4-0.5,0.7-1,0.9-1.6c0.3-0.5,0.5-1.1,0.8-1.6c0.3-0.6,0.5-1.2,0.7-1.8c0.3-0.6,0.5-1.3,0.5-1.9
			c0.2-0.6,0.3-1.2,0.3-1.8c0-0.7-0.1-1.3-0.4-1.8c-0.2-0.5-0.6-0.9-1.2-1.1h-0.3c-0.1-0.1-0.1-0.1-0.1-0.1h-0.3h-0.3
			c-2.5-0.1-6.1,2-10.6,6.2c-4.5,4.2-9.3,9.5-14.2,15.9c-2.2,2.8-4.3,5.7-6.5,8.8c-2.1,3-4.1,6.1-6.1,9.2V86.6z M388.5,129.2
			c-0.1,0.3-0.2,0.5-0.4,0.8c-0.1,0.3-0.2,0.5-0.3,0.7c-0.3,0.7-0.6,1.5-0.9,2.2c-0.3,0.7-0.5,1.5-0.8,2.2c-0.5,1.3-1,2.5-1.4,3.8
			c-0.3,1.2-0.4,2.2-0.4,3.1c0,0.6,0.1,1.2,0.3,1.6c0.3,0.4,0.6,0.8,0.9,0.9c0.3,0.1,0.5,0.2,0.8,0.3c0.3,0.1,0.6,0.1,0.9,0.1
			c1.1,0,2.3-0.3,3.5-0.8c1.3-0.5,2.6-1.3,3.9-2.2c1-0.7,1.9-1.5,2.9-2.3c0.9-0.9,1.8-1.9,2.6-3c0.4-0.4,0.9-1.1,1.5-2
			c0.7-1,1.4-2,2.2-3.1c0.1-0.2,0.2-0.4,0.3-0.5c0.2-0.2,0.3-0.4,0.4-0.5c0.7-1.2,1.4-2.3,2-3.4c0.6-1.2,1-2,1.2-2.6
			c-0.9-0.1-1.7-0.2-2.4-0.3c-0.7-0.2-1.4-0.5-2-0.8c-0.4-0.1-0.7-0.2-1.1-0.4c-0.3-0.3-0.6-0.5-0.9-0.7c-1.3-0.8-2.3-1.7-3.1-2.6
			c-0.7-0.9-1.4-2-2-3.4c-0.7,0.8-1.4,1.6-1.9,2.4c-0.5,0.8-1,1.6-1.5,2.3c-0.4,0.6-0.7,1.2-1,1.8c-0.3,0.5-0.5,1.1-0.8,1.6
			c-0.5,0.8-0.9,1.6-1.2,2.4c-0.4,0.7-0.8,1.5-1.2,2.4V129.2z M479.4,106.1c-0.3,0.3-0.5,0.5-0.8,0.7c-0.2,0.2-0.4,0.4-0.7,0.5
			c-1.4,1.1-2.9,2.6-4.6,4.6c-1.7,2-4.2,5.2-7.6,9.8c-0.7,1.1-1.4,2.2-2.2,3.4c-0.6,1.1-1.3,2.2-1.9,3.3c-1.3,2.5-2.3,5-3.1,7.5
			c-0.7,2.4-1.1,4.3-1.1,5.8c0,0.6,0,1.2,0.1,1.6c0.2,0.5,0.4,0.8,0.7,1c0.2,0.1,0.3,0.2,0.4,0.3c0.2,0.1,0.4,0.1,0.6,0.1
			c0.1,0.1,0.2,0.1,0.4,0.1h0.4c1.2,0.1,2.3-0.4,3.4-1.5c1.2-1.1,2.2-2.3,3.1-3.5c0.3-0.3,0.5-0.5,0.7-0.8c0.2-0.4,0.4-0.7,0.5-0.9
			c3.4-5.4,6.6-10.6,9.5-15.5c3-5,5.9-9.8,8.7-14.4c0.3-0.4,0.5-0.8,0.5-1.1c0.1-0.4,0.2-0.6,0.3-0.8c0-0.4-0.1-0.6-0.4-0.8
			c-0.2-0.3-0.4-0.5-0.7-0.7h-0.3c0-0.1,0-0.1-0.1-0.1c-0.2-0.1-0.4-0.1-0.7-0.1c-0.2-0.1-0.4-0.1-0.5-0.1c-0.6,0-1.3,0.1-2,0.4
			c-0.7,0.3-1.6,0.8-2.6,1.5V106.1z M409.4,120.8c0.2,0,0.4-0.1,0.5-0.4c0.2-0.3,0.4-0.5,0.5-0.8c0.5-0.8,0.9-1.8,1.2-3
			c0.4-1.2,0.8-2.4,1.1-3.5c0.1-0.5,0.1-1.1,0.1-1.6c0.1-0.5,0.1-1.1,0.1-1.6v-0.1v-0.3c-0.1-1.4-0.4-2.4-0.8-3
			c-0.4-0.6-0.8-1.1-1.4-1.4c-0.2-0.1-0.4-0.1-0.5-0.1c-0.2-0.1-0.4-0.1-0.5-0.1h-0.3h-0.3c-0.4,0-0.9,0.1-1.5,0.3
			c-0.5,0.1-0.9,0.2-1.5,0.4c-1,0.5-2,1.1-3,1.9c-0.9,0.8-1.7,1.6-2.3,2.4c-0.5,0.5-0.8,1.1-1.1,1.6c-0.3,0.5-0.4,1-0.5,1.5v0.1
			c0,0.5,0.1,1,0.4,1.6c0.4,0.6,0.8,1.3,1.4,1.9c0.8,1.1,1.8,2.1,3,3c1.3,0.8,2.5,1.3,3.8,1.5h0.1h0.3h0.3c0.1,0,0.2-0.1,0.3-0.1h0.3
			h0.3V120.8z M273,128c-2.4,0.1-4.2-0.4-5.4-1.4c-1.2-1-2-2.1-2.6-3.3c-0.3-0.8-0.5-1.6-0.7-2.3c-0.1-0.8-0.2-1.5-0.3-1.9
			c0-0.1,0-0.1-0.1-0.1v-0.3c0,0.3-0.3,0.9-0.9,1.8c-0.6,0.8-1.5,1.7-2.6,2.7c-1.3,1.2-2.9,2.3-4.7,3.3c-1.8,1-3.8,1.5-5.8,1.5
			c-3.3,0-5.6-0.8-6.9-2.3c-1.3-1.6-2-3.4-2.2-5.3c-0.1-0.2-0.1-0.4-0.1-0.7v-0.8c0-0.9,0-1.8,0.1-2.6c0.2-0.9,0.3-1.7,0.4-2.3
			c0.1-0.5,0.2-0.8,0.3-1.1c0.1-0.4,0.2-0.6,0.3-0.7c0,0.4-0.7,1.3-2,2.9c-1.4,1.5-3.1,3.2-5.3,5c-2.1,1.6-4.4,3.2-6.9,4.8
			c-2.5,1.4-5.1,2.4-7.7,2.9c-0.5,0.1-1.1,0.2-1.5,0.3h-1.4h-0.3h-0.1h-0.3h-0.3c-4.8-0.3-8-1.5-9.6-3.5c-1.6-2.1-2.6-4.8-2.9-8.1
			v-0.1v-0.3c0-1.1,0.2-2.5,0.5-4.3c0.5-1.8,1-3.7,1.6-5.6c0.2-0.7,0.4-1.4,0.7-2.2c0.3-0.8,0.5-1.6,0.8-2.3c0.6-1.9,1.3-3.5,1.9-4.9
			c0.6-1.4,1.1-2.1,1.4-2.3l-6.6,1.2c-0.3,0.7-1,2.1-2.2,4.1c-1.1,2-2.4,4.1-3.9,6.4c-0.5,0.7-0.9,1.4-1.5,2.2
			c-0.5,0.7-1.1,1.5-1.6,2.2c-0.1,0.2-0.2,0.4-0.4,0.5c-0.1,0.2-0.2,0.4-0.4,0.5c-3.4,4.3-7.1,8-10.8,11.3c-3.8,3.3-7.9,5-12.2,5.3
			h-0.3h-0.3h-0.1c-0.5,0-1.1-0.1-1.6-0.1c-0.5-0.1-1.1-0.2-1.6-0.3c-1.8-0.6-3.5-1.5-5-2.9c-1.5-1.5-2.4-3.5-2.7-6.2v-0.4v-0.5
			c-0.1-0.2-0.1-0.3-0.1-0.4v-0.5c0-3.3,0.7-6.8,2-10.4c1.4-3.6,3.8-7.9,7.1-12.9c1.5-2.3,3.1-4.5,4.7-6.4c1.6-2,3.3-3.8,4.9-5.4
			c4.2-4,8.2-6.9,12.1-8.8c3.9-1.9,7.1-2.8,9.5-2.7c2.6,0.1,4.8,0.9,6.6,2.3c1.9,1.5,2.9,3.9,3.1,7.2v0.1v0.1V80c0,0.6-0.1,1.3-0.1,2
			c-0.1,0.7-0.2,1.4-0.4,2c-0.2,0.8-0.4,1.6-0.7,2.4c-0.2,0.7-0.4,1.4-0.7,2c-0.4,1-0.7,1.9-1.1,2.6c-0.3,0.6-0.5,1-0.7,1.1h0.5
			c0.2-0.1,0.4-0.1,0.5-0.1c0.7,0,1.6-0.1,2.7-0.4c1.1-0.3,2.4-1,4.1-2.2c1.7-1.3,3.2-2.4,4.3-3.5c1.2-1.1,2.3-2.2,3.3-3.3
			c0.2-0.1,0.3-0.2,0.4-0.3c0.1-0.1,0.2-0.2,0.4-0.4c0.8-0.7,1.7-1.5,2.6-2.3c0.9-0.8,1.9-1.7,3.1-2.6c2.3-1.7,4.3-3.1,6.2-4.2
			c1.9-1.2,3.7-2,5.4-2.6c0.7-0.2,1.4-0.3,2-0.4c0.6-0.1,1.3-0.1,1.9-0.1h0.4h0.4c0.2,0.1,0.3,0.1,0.4,0.1h0.4c2.4,0.2,4.4,1,6.1,2.5
			c1.8,1.4,2.7,3.3,2.7,5.7v0.3v0.1c-0.1,2.5-0.8,4.6-2,6.5c-1.2,1.9-2.5,3.4-3.9,4.6c-0.8,0.6-1.6,1.1-2.4,1.5
			c-0.7,0.4-1.4,0.5-1.9,0.5h-0.3h-0.1c-1.2-0.2-2-0.6-2.6-1.4c-0.5-0.8-0.8-1.7-0.8-2.6v-0.8c0.1-0.3,0.2-0.5,0.3-0.7
			c0.1-0.5,0.2-1.1,0.4-1.6c0.3-0.5,0.5-1,0.8-1.4c0.4-0.6,0.9-1.2,1.5-1.6c0.5-0.5,1.1-0.9,1.6-1.2c1-0.6,2-1,2.8-1.2
			c0.9-0.3,1.6-0.4,2-0.4h0.1h0.1c0,0-0.1-0.1-0.1-0.1v-0.3v-0.3c0-0.2,0-0.4-0.1-0.5c-0.2-0.3-0.5-0.5-1.1-0.8
			c-0.4-0.3-1.3-0.4-2.6-0.4c-1.1,0-2.5,0.6-4.2,1.9c-1.7,1.2-3.5,2.7-5.4,4.6c-1.2,1.3-2.4,2.6-3.5,4.1c-1.2,1.4-2.3,2.8-3.3,4.3
			c-0.3,0.4-0.5,0.8-0.8,1.2c-0.2,0.4-0.4,0.7-0.7,1.1c-0.8,1.4-1.6,2.9-2.4,4.5c-0.8,1.6-1.6,3.3-2.3,4.9c-1,2.4-1.8,4.8-2.4,7
			c-0.6,2.3-1,4.2-1,5.7c0,0.7,0.1,1.4,0.3,1.9c0.2,0.5,0.4,0.9,0.8,1.2c0.2,0.1,0.4,0.2,0.5,0.3c0.3,0.1,0.6,0.1,0.9,0.1
			c1.3,0,2.9-0.4,4.9-1.2c2-0.9,4-2.1,6.1-3.5c1.8-1.2,3.5-2.5,5.2-3.8c1.7-1.4,3.2-2.9,4.5-4.5c4.7-5.7,8.8-11,12.2-15.7
			c3.5-4.8,6.9-8.8,10-12.1c0.8-0.7,1.6-1.4,2.3-2c0.7-0.7,1.5-1.4,2.3-1.9c0.7-0.5,1.4-1,2-1.4c0.6-0.5,1.3-0.8,1.9-1.1
			c1.4-0.7,2.7-1.2,4.1-1.5c1.4-0.4,2.9-0.5,4.6-0.5c2,0,3.5,0.2,4.5,0.5c1.1,0.4,1.9,0.8,2.4,1.2c0.4,0.3,0.6,0.5,0.8,0.8
			c0.3,0.3,0.5,0.5,0.7,0.7v0.1h0.1c0-0.2,0.1-0.4,0.1-0.7c0.2-0.3,0.4-0.6,0.5-0.8c0.1-0.1,0.1-0.2,0.1-0.3c0.1-0.2,0.2-0.3,0.3-0.4
			c0.1-0.2,0.2-0.4,0.3-0.5c0.2-0.2,0.3-0.3,0.4-0.4c0.2-0.2,0.8-0.3,1.8-0.3c1.1-0.1,2.3-0.1,3.5-0.1h0.3h0.5c1.5,0,3,0,4.3,0.1
			c1.4,0.1,2.1,0.2,2.2,0.4c0.2,0.2-1,2.4-3.5,6.5c-2.4,4.1-5.1,8.6-8,13.7c-0.3,0.4-0.5,0.7-0.7,1.1c-0.2,0.3-0.4,0.6-0.5,0.9
			c-2.7,4.7-5.2,9.1-7.3,13.3c-2.1,4.1-3.1,6.8-3.1,8.1v0.4c0.1,0.1,0.2,0.2,0.3,0.3c0.2,0.1,0.4,0.2,0.5,0.3h0.7
			c0.9,0.1,1.9-0.3,3.1-1.1c1.2-0.8,2.4-1.9,3.7-3.1c0.5-0.4,0.9-1,1.4-1.5c0.4-0.5,0.9-1.1,1.4-1.6c0.4-0.5,0.7-1.1,1.1-1.8
			c0.4-0.6,0.9-1.3,1.2-1.9c0.1-0.2,0.2-0.4,0.3-0.5c0.2-0.2,0.3-0.4,0.4-0.7c0.7-1.3,1.5-2.3,2.2-3.1c0.8-0.9,1.6-1.2,2.4-1
			c0.9,0.4,0.6,2-0.9,5c-1.5,3-3.6,6.2-6.4,9.6c-1.5,2.1-3.3,4.1-5.2,6c-1.8,1.9-3.7,3.6-5.6,5c-1.5,1.1-3.1,2-4.6,2.7
			c-1.4,0.7-2.8,1.1-4.2,1.1V128z M179,100.4c-0.1,0.3-0.2,0.5-0.4,0.8c-0.1,0.3-0.2,0.5-0.3,0.7c-0.3,0.7-0.6,1.4-1,2.2
			c-0.3,0.7-0.5,1.4-0.8,2.2c-0.5,1.3-1,2.5-1.4,3.8c-0.3,1.2-0.4,2.2-0.4,3.1c0,0.6,0.1,1.2,0.3,1.6c0.3,0.4,0.6,0.8,1,0.9
			c0.3,0.1,0.5,0.2,0.8,0.3c0.3,0.1,0.6,0.1,0.9,0.1c1.1,0,2.3-0.3,3.5-0.8c1.3-0.5,2.6-1.3,3.9-2.2c1-0.7,1.9-1.5,2.9-2.3
			c0.9-0.9,1.8-1.9,2.6-3c0.4-0.5,0.9-1.1,1.5-2c0.7-1,1.4-2,2.2-3.1c0.1-0.2,0.2-0.4,0.3-0.5c0.2-0.2,0.3-0.4,0.4-0.5
			c0.7-1.2,1.4-2.3,2-3.4c0.6-1.2,1-2,1.2-2.6c-0.9-0.1-1.7-0.2-2.4-0.3c-0.7-0.2-1.4-0.4-2-0.8c-0.4-0.1-0.7-0.2-1.1-0.4
			c-0.3-0.3-0.6-0.5-0.9-0.7c-1.3-0.8-2.3-1.7-3.1-2.6c-0.7-0.9-1.4-2-2-3.4c-0.7,0.8-1.4,1.6-1.9,2.4c-0.5,0.8-1,1.6-1.5,2.3
			c-0.4,0.6-0.7,1.2-1,1.8c-0.3,0.6-0.5,1.1-0.8,1.6c-0.5,0.8-0.9,1.6-1.2,2.4c-0.4,0.7-0.8,1.5-1.2,2.4V100.4z M280,77.4
			c-0.3,0.3-0.5,0.5-0.8,0.7c-0.2,0.2-0.4,0.4-0.7,0.5c-1.4,1.1-2.9,2.6-4.6,4.6c-1.7,2-4.2,5.2-7.6,9.8c-0.7,1.1-1.5,2.2-2.2,3.4
			c-0.6,1.1-1.3,2.2-1.9,3.3c-1.3,2.5-2.3,5-3.1,7.5c-0.7,2.4-1.1,4.3-1.1,5.8c0,0.6,0,1.2,0.1,1.6c0.2,0.5,0.4,0.8,0.7,1
			c0.2,0.1,0.3,0.2,0.4,0.3c0.2,0.1,0.4,0.1,0.5,0.1c0.1,0.1,0.2,0.1,0.4,0.1h0.4c1.2,0.1,2.3-0.4,3.4-1.5c1.2-1.1,2.2-2.3,3.1-3.5
			c0.3-0.3,0.5-0.5,0.7-0.8c0.2-0.4,0.4-0.7,0.5-0.9c3.4-5.4,6.6-10.6,9.5-15.5c3-5,5.9-9.8,8.7-14.4c0.3-0.5,0.4-0.8,0.5-1.1
			c0.1-0.4,0.2-0.6,0.3-0.8c0-0.4-0.1-0.6-0.4-0.8c-0.2-0.3-0.4-0.5-0.7-0.7h-0.3c0-0.1,0-0.1-0.1-0.1c-0.2-0.1-0.4-0.1-0.7-0.1
			c-0.2-0.1-0.4-0.1-0.5-0.1c-0.6,0-1.3,0.1-2,0.4c-0.7,0.3-1.6,0.8-2.6,1.5V77.4z M199.9,92c0.2,0,0.4-0.1,0.5-0.4
			c0.2-0.3,0.4-0.5,0.6-0.8c0.4-0.8,0.9-1.8,1.2-3c0.5-1.2,0.8-2.4,1.1-3.5c0.1-0.5,0.1-1.1,0.1-1.6c0.1-0.5,0.1-1.1,0.1-1.6v-0.1
			v-0.3c-0.1-1.4-0.4-2.4-0.8-3c-0.4-0.6-0.8-1.1-1.4-1.4c-0.2-0.1-0.4-0.1-0.6-0.1c-0.2-0.1-0.4-0.1-0.5-0.1h-0.3h-0.3
			c-0.4,0-0.9,0.1-1.5,0.3c-0.5,0.1-1,0.2-1.5,0.4c-1,0.5-2,1.1-3,1.9c-0.9,0.8-1.7,1.6-2.3,2.4c-0.4,0.5-0.8,1.1-1.1,1.6
			c-0.3,0.5-0.5,1-0.5,1.5v0.1c0,0.5,0.1,1,0.4,1.6c0.4,0.6,0.8,1.3,1.4,1.9c0.8,1.1,1.8,2.1,3,3c1.3,0.8,2.5,1.3,3.8,1.5h0.1h0.3
			h0.3c0.1,0,0.2,0,0.3-0.1h0.3h0.3V92z M326.6,69.8c0.2,0.2,0,0.9-0.7,2.2c-0.5,1.3-1.2,2.6-2,4.1c-0.1,0.2-0.2,0.4-0.3,0.5
			c-0.1,0.1-0.2,0.2-0.3,0.4c-0.7,1.3-1.4,2.4-2,3.5c-0.6,1-1,1.5-1.2,1.6c-0.1,0.1-0.7,0.2-1.9,0.4c-1.2,0.1-2.4,0.1-3.8,0.1h-0.8
			h-0.6c-1.1,0-2.1-0.1-3-0.1c-0.8-0.1-1.3-0.2-1.5-0.4c-0.2-0.3,0-1,0.6-2.2c0.5-1.2,1.2-2.5,2-3.9c0.1-0.3,0.2-0.5,0.3-0.7
			c0.2-0.3,0.4-0.5,0.5-0.8c0.7-1.2,1.4-2.2,1.9-3.1c0.6-0.9,1.1-1.4,1.4-1.5c0.2-0.1,0.8-0.2,1.8-0.3c1.1-0.1,2.3-0.1,3.5-0.1h0.1
			h0.3c1.4,0,2.6,0,3.8,0.1c1.2,0,1.8,0.1,1.9,0.3V69.8z M494.6,58.1c1.8-0.6,3.5-1.3,5-2c1.5-0.7,3-1.4,4.3-2.2
			c5.4-3.2,9.1-6.1,11-8.7c1.9-2.6,3.4-3.8,4.6-3.7c0.1,0.1,0.1,0.1,0.1,0.1h0.1c1.1,0.5,0.6,2.2-1.4,5.3c-2,3.1-4.9,6.4-8.7,10
			c-2.4,2.3-5.2,4.5-8.1,6.6c-2.9,2.2-6,4-9.2,5.4c-2.1,1-4.1,1.9-6,2.6c-1.8,0.7-3.6,1.3-5.4,1.8c-1.5,0.4-3.1,0.7-4.8,1
			c-1.6,0.2-3.3,0.3-5.1,0.3c-1.3,0-2.7,0-4.2-0.1c-1.4-0.1-3-0.3-4.6-0.5l8.7-11.5c2.5,0.1,4.8,0,6.9-0.1c2.2-0.2,4.3-0.5,6.2-0.9
			c1.6-0.3,3.3-0.7,4.9-1.2c1.7-0.5,3.6-1.2,5.6-1.9V58.1z"/>
	</g>
</svg>
