<?xml version="1.0" encoding="utf-8"?>
<!-- Generator: Adobe Illustrator 21.0.2, SVG Export Plug-In . SVG Version: 6.00 Build 0)  -->
<svg version="1.1" id="Layer_1" xmlns="http://www.w3.org/2000/svg" xmlns:xlink="http://www.w3.org/1999/xlink" x="0px" y="0px"
	 viewBox="0 0 485.8 142.3" style="enable-background:new 0 0 485.8 142.3;" xml:space="preserve">
<style type="text/css">
	.st0{fill:#761525;}
	.st1{fill:#E1362D;}
	.st2{fill:#C41322;}
	.st3{fill:#ccc;}
</style>
<g>
	<path class="st3" d="M18.3,87.6l3.8-19.8c0.4-2.3,0.8-4.8,1.1-6.7h3l-0.5,3.5h0.1c1.7-2.4,4.2-4,6.8-4c4.1,0,5.8,3.3,5.8,6.8
		c0,6.6-4.7,12.9-11,12.9c-2,0-3.3-0.4-4.1-0.9H23l-1.5,8.1H18.3z M23.6,76.8c0.8,0.7,2.1,1.1,3.6,1.1c4.2,0,7.7-5.2,7.7-10.1
		c0-2-0.9-4.4-3.6-4.4c-2.5,0-5.7,2.9-6.7,8.2L23.6,76.8z"/>
	<path class="st3" d="M58.5,68.5c0,5.8-4.1,11.8-10.4,11.8c-4.7,0-7.3-3.5-7.3-7.7c0-6.2,4.3-11.9,10.4-11.9C56.3,60.7,58.5,64.5,58.5,68.5z
		 M44.1,72.5c0,3.1,1.7,5.3,4.4,5.3c3.8,0,6.7-4.9,6.7-9.3c0-2.2-1-5.2-4.4-5.2C46.8,63.2,44.1,68.2,44.1,72.5z"/>
	<path class="st3" d="M65,61.1l0.7,10.6c0.2,2.3,0.1,3.5,0.1,5.1h0.1c0.4-1.2,1.1-2.8,2.1-4.7l5.6-10.9h2.8l1.2,10.7c0.2,2.1,0.4,3.7,0.3,4.9
		h0.1c0.5-1.5,1.1-3,1.8-4.7l5.1-10.9H88l-9.3,18.8h-3l-1.2-10.2c-0.2-1.7-0.3-3.3-0.3-5h-0.1c-0.8,1.8-1.3,3.2-2.2,4.9l-5.4,10.3
		h-3l-1.7-18.8H65z"/>
	<path class="st3" d="M101.3,78.8c-1.4,0.8-3.7,1.5-6.2,1.5c-5,0-7.2-3.4-7.2-7.5c0-5.7,4.2-12.1,10.3-12.1c3.6,0,5.5,2.1,5.5,4.8
		c0,4.9-5.6,6.3-12.5,6.1c-0.2,0.8,0,2.6,0.4,3.6c0.7,1.7,2.3,2.5,4.2,2.5c2.2,0,3.9-0.7,5.1-1.3L101.3,78.8z M97.7,63.2
		c-3.1,0-5.4,3-6.1,5.9c5,0,9-0.6,9-3.5C100.6,64.1,99.4,63.2,97.7,63.2z"/>
	<path class="st3" d="M105.3,79.9l2.3-12.1c0.5-2.4,0.8-4.9,1-6.7h2.8c-0.2,1.3-0.3,2.6-0.5,4.1h0.1c1.2-2.6,3.2-4.5,5.8-4.5
		c0.3,0,0.7,0,0.9,0.1l-0.6,3.2c-0.2,0-0.5-0.1-0.9-0.1c-2.8,0-5.3,3.4-6.1,7.8l-1.6,8.3H105.3z"/>
	<path class="st3" d="M131,78.8c-1.4,0.8-3.7,1.5-6.2,1.5c-5,0-7.2-3.4-7.2-7.5c0-5.7,4.2-12.1,10.3-12.1c3.6,0,5.5,2.1,5.5,4.8
		c0,4.9-5.6,6.3-12.5,6.1c-0.2,0.8,0,2.6,0.4,3.6c0.7,1.7,2.3,2.5,4.2,2.5c2.2,0,3.9-0.7,5.1-1.3L131,78.8z M127.4,63.2
		c-3.1,0-5.4,3-6.1,5.9c5,0,9-0.6,9-3.5C130.3,64.1,129.1,63.2,127.4,63.2z"/>
	<path class="st3" d="M155.1,52.3L150.9,74c-0.4,1.9-0.7,4.1-0.8,5.9h-3l0.5-3.7h-0.1c-1.7,2.7-4.1,4.2-6.8,4.2c-3.7,0-5.6-3-5.6-6.8
		c0-6.7,5-12.8,11.6-12.8c1.2,0,2.5,0.3,3.3,0.7l1.7-9H155.1z M149.7,64.1c-0.7-0.4-1.7-0.8-3.1-0.8c-4.5,0-8,4.8-8,9.8
		c0,2.3,0.8,4.6,3.5,4.6c2.5,0,5.5-2.8,6.3-7.1L149.7,64.1z"/>
	<path class="st3" d="M170.8,52.3l-2.5,12.2h0.1c1.7-2.5,4.1-3.8,6.6-3.8c4.1,0,5.7,3.4,5.7,6.8c0,5.7-4.2,12.9-11.7,12.9
		c-3.3,0-5.8-1.4-5.8-4.9c0-0.9,0.2-2,0.3-2.9l4.1-20.2H170.8z M166.8,72.6c-0.2,0.6-0.3,1.4-0.2,2.4c0,1.8,1,2.8,3,2.8
		c4.9,0,7.8-5.8,7.8-9.9c0-2.3-1-4.5-3.6-4.5c-2.8,0-5.7,2.9-6.6,7.3L166.8,72.6z"/>
	<path class="st3" d="M186.8,61.1l1.9,10.1c0.4,2.1,0.7,3.5,0.9,4.9h0.1c0.5-1.2,1.1-2.5,2-4.6l4.8-10.5h3.4l-7,14.3c-2,4.1-3.9,7.4-6.5,9.9
		c-2.1,2.1-4.4,3-5.5,3.3l-0.8-2.8c0.8-0.3,2.2-0.8,3.5-1.8c1.2-1,2.6-2.5,3.6-4.3c0.2-0.3,0.2-0.5,0.1-0.9l-3.8-17.7H186.8z"/>
</g>
<g>
	<g>
		<path class="st0" d="M228.7,125.9l12.8-29c0.1-0.2,0.3-0.3,0.5-0.3h0.1c0.2,0,0.4,0,0.5,0.3l12.7,29c0.1,0.2,0.1,0.5-0.4,0.5H254
			c-0.3,0-0.5-0.2-0.6-0.4l-3.4-7.7h-15.9l-3.3,7.7c-0.1,0.2-0.3,0.4-0.6,0.4H229C228.7,126.4,228.6,126.2,228.7,125.9z
			 M249.3,116.7l-7.1-16.8h-0.1l-7.3,16.8H249.3z"/>
		<path class="st0" d="M269.3,97.7c0-0.3,0.3-0.5,0.5-0.5h16.7c0.3,0,0.5,0.3,0.5,0.5v0.7c0,0.3-0.2,0.5-0.5,0.5h-15.3v12.7h13.2
			c0.3,0,0.5,0.2,0.5,0.5c0,0.5,0.1,1.2-0.5,1.2h-13.2l0,12.4c0,0.3-0.2,0.5-0.7,0.5h-0.8c-0.3,0-0.5-0.3-0.5-0.5V97.7z"/>
		<path class="st0" d="M302.4,97.7c0-0.3,0.3-0.5,0.5-0.5h16.7c0.3,0,0.5,0.3,0.5,0.5v0.7c0,0.3-0.2,0.5-0.5,0.5h-15.3v12.7h13.2
			c0.3,0,0.5,0.2,0.5,0.5c0,0.5,0.1,1.2-0.5,1.2h-13.2l0,12.4c0,0.3-0.2,0.5-0.7,0.5h-0.8c-0.3,0-0.5-0.3-0.5-0.5V97.7z"/>
		<path class="st0" d="M335.5,97.7c0-0.3,0.3-0.5,0.5-0.5h0.9c0.3,0,0.5,0.3,0.5,0.5v28.1c0,0.3-0.3,0.5-0.6,0.5H336
			c-0.3,0-0.5-0.3-0.5-0.5V97.7z"/>
		<path class="st0" d="M355.5,97.3c0-0.3,0.3-0.5,0.6-0.5h0.7l20,26.1c0,0,0,0,0,0V97.7c0-0.3,0.3-0.5,0.5-0.5h0.8
			c0.3,0,0.5,0.3,0.5,0.5v28.5c0,0.4-0.3,0.5-0.7,0.5h-0.5c0,0-0.4-0.1-20.2-26.3h0v25.4c0,0.3-0.3,0.5-0.5,0.5H356
			c-0.3,0-0.5-0.3-0.5-0.5V97.3z"/>
		<path class="st0" d="M396.8,97.7c0-0.3,0.3-0.5,0.5-0.5h0.9c0.3,0,0.5,0.3,0.5,0.5v28.1c0,0.3-0.3,0.5-0.6,0.5h-0.9
			c-0.3,0-0.5-0.3-0.5-0.5V97.7z"/>
		<path class="st0" d="M421.2,99h-8c-0.4,0-0.5-0.3-0.5-0.6v-0.6c0-0.3,0.3-0.5,0.5-0.5h17.9c0.3,0,0.5,0.3,0.5,0.5v0.7
			c0,0.3-0.2,0.5-0.5,0.5h-8v26.9c0,0.3-0.2,0.5-0.7,0.5h-0.8c-0.3,0-0.5-0.3-0.5-0.5V99z"/>
		<path class="st0" d="M453.4,112.2l-10.6-14.4c-0.3-0.3-0.1-0.6,0.3-0.6h1.3c0.2,0,0.4,0.1,0.5,0.3l9.5,13l9.7-13
			c0.1-0.2,0.3-0.3,0.5-0.3h1.3c0.4,0,0.6,0.3,0.3,0.6l-10.8,14.3v13.7c0,0.3-0.2,0.5-0.5,0.5c-0.5,0-1.4,0.1-1.4-0.5V112.2z"/>
	</g>
	<g>
		<g>
			<path class="st1" d="M265.5,38.8V16.8l0,0l-37.4,64.7h12.7L265.5,38.8"/>
			<path class="st2" d="M265.5,38.7 M302.9,81.5l-37.4-64.7v21.9l18.4,31.9L302.9,81.5z"/>
			<path class="st0" d="M283.9,70.6h-22.6v11h41.6L283.9,70.6z"/>
		</g>
		<polygon class="st0" points="320.1,70.2 320.1,16.8 309,16.8 309,70.2 309,81.4 320.1,81.4 352.1,81.4 352.1,70.2 		"/>
		<g>
			<path class="st0" d="M381.9,81.2c-14.7,0-26.7-12-26.7-26.7V16.8h11.3v37.7c0,8.5,6.9,15.4,15.4,15.4c8.5,0,15.4-6.9,15.4-15.4
				V16.8h11.3v37.7C408.6,69.2,396.7,81.2,381.9,81.2z"/>
		</g>
		<g>
			<path class="st0" d="M465.7,28.3l-8.3,5.5c-3.9-5.3-10-7.9-16.6-7.9c-6.2,0-11.4,2.3-11.4,8c0,5.9,6.3,7.2,13.9,8.9
				c12.4,2.6,23.5,6.1,23.5,18.9c0,11.6-9.4,19.7-24.7,19.7c-12.4,0-21.9-5.4-26.7-13.9l8.8-5.2c4.2,7,11.3,9.8,18.5,9.8
				c7.8,0,13.1-3.4,13.1-9.2c0-6.7-6.8-7.9-15.7-9.7c-11.4-2.3-21.7-6.1-21.7-18.4c0-11.5,9.5-18.2,22.7-18.2
				C450.9,16.7,460,20.4,465.7,28.3z"/>
		</g>
	</g>
</g>
</svg>
